<?xml version="1.0" encoding="UTF-8"?>
<svg version="1.1" xmlns="http://www.w3.org/2000/svg" width="512" height="512">
<path d="M0 0 C2.74907918 1.24266596 5.41043419 2.59139535 8.0765686 4.00326538 C9.57163689 4.76319038 9.57163689 4.76319038 11.09690857 5.53846741 C14.2733171 7.15775737 17.43479294 8.80393797 20.59609985 10.45248413 C23.69963077 12.04834281 26.80606453 13.63844135 29.91278076 15.22808838 C31.9864523 16.28968626 34.05893727 17.35360501 36.13024902 18.4197998 C44.09097991 22.50684805 52.1311038 26.40316158 60.21626282 30.23698425 C68.27421891 34.06025686 76.25681075 38.02016377 84.21994019 42.03649902 C97.94957424 48.9587478 111.73092199 55.74953116 125.64151001 62.30233765 C126.90398804 62.90078503 128.15896309 63.51516575 129.40859985 64.13998413 C129.41270874 63.05056519 129.41681763 61.96114624 129.42105103 60.8387146 C129.44289793 56.77915775 129.49724415 52.72056251 129.56118774 48.66146851 C129.58431953 46.90798185 129.59875214 45.15435721 129.60415649 43.40072632 C129.61348185 40.87283829 129.65454621 38.34710596 129.7015686 35.81967163 C129.69763596 35.04130951 129.69370331 34.26294739 129.68965149 33.46099854 C129.84216195 27.71314099 131.28814408 25.16338253 135.40859985 21.13998413 C138.68630702 19.50113055 141.87875305 19.48400703 145.40859985 20.13998413 C151.06158643 23.40669053 155.72572711 28.19934974 160.24453735 32.85092163 C160.84996368 33.4639212 161.45539001 34.07692078 162.0791626 34.70849609 C163.98564736 36.63914049 165.88539702 38.57619869 167.78359985 40.51498413 C170.30655016 43.09098271 172.83597551 45.66036425 175.36953735 48.22592163 C176.23510757 49.11638687 176.23510757 49.11638687 177.11816406 50.02484131 C178.51076744 51.43465384 179.95522425 52.79290771 181.40859985 54.13998413 C182.06859985 54.13998413 182.72859985 54.13998413 183.40859985 54.13998413 C184.80019458 52.46490454 184.80019458 52.46490454 186.18667603 50.2437439 C186.74453293 49.39188004 187.30238983 48.54001617 187.87715149 47.66233826 C188.47920914 46.72812546 189.08126678 45.79391266 189.7015686 44.83139038 C190.3258223 43.87610947 190.95007599 42.92082855 191.59324646 41.93659973 C193.6008137 38.86281503 195.59907249 35.78312509 197.59609985 32.70248413 C199.57628052 29.65466068 201.55852416 26.60824037 203.5453949 23.56477356 C204.78284416 21.66859552 206.01638674 19.76986008 207.24531555 17.8681488 C211.50675852 11.32883875 215.86915345 4.67943054 221.40859985 -0.86001587 C226.27389596 -1.60057421 230.24000943 -1.5754794 234.47109985 1.01498413 C238.12212963 5.01933937 237.62492865 8.90774314 237.7250061 14.08529663 C237.7457872 14.97030853 237.7665683 15.85532043 237.78797913 16.76715088 C237.85346584 19.59968154 237.91235548 22.43230638 237.97109985 25.26498413 C238.01428591 27.1829627 238.05790023 29.10093167 238.10195923 31.01889038 C238.20914633 35.72582464 238.31041625 40.4328538 238.40859985 45.13998413 C238.93842468 44.60793869 239.46824951 44.07589325 240.01412964 43.52772522 C245.01385749 38.50793925 250.01600338 33.4905783 255.02086258 28.47590923 C257.59366418 25.89789472 260.16552954 23.3189606 262.73526001 20.73788452 C265.21639262 18.24586649 267.69997798 15.75631718 270.18526459 13.26844215 C271.59167349 11.8592933 272.99554765 10.4476161 274.39938354 9.03590393 C275.25997375 8.17523819 276.12056396 7.31457245 277.00723267 6.42782593 C278.13974457 5.29198311 278.13974457 5.29198311 279.2951355 4.13319397 C283.98462914 -0.28947104 286.57025211 -1.40332871 292.99453735 -1.22329712 C296.37706382 -0.71427615 298.13182219 0.64287315 300.40859985 3.13998413 C301.63940494 5.60159431 301.52903963 7.20495406 301.52212524 9.95687866 C301.52204971 10.9577652 301.52197418 11.95865173 301.52189636 12.98986816 C301.51673508 14.07323456 301.51157379 15.15660095 301.5062561 16.27279663 C301.50413368 17.93325516 301.50413368 17.93325516 301.50196838 19.6272583 C301.49635758 23.17319406 301.48380322 26.71906736 301.47109985 30.26498413 C301.46608625 32.6647228 301.4615231 35.06446246 301.45742798 37.46420288 C301.44638464 43.35615138 301.42963595 49.2480633 301.40859985 55.13998413 C302.51932861 54.55712646 302.51932861 54.55712646 303.65249634 53.9624939 C306.43670099 52.51029066 309.22727448 51.07135442 312.02261353 49.64071655 C313.81200065 48.72002908 315.59379394 47.7846304 317.37539673 46.84896851 C323.85179863 43.54691571 329.08425644 41.16984894 336.40859985 41.13998413 C340.18756236 42.70085995 342.37005968 44.62194943 344.40859985 48.13998413 C344.91397188 51.04883732 345.01055807 53.94245884 345.09609985 56.88998413 C345.13026001 57.68275757 345.16442017 58.47553101 345.19961548 59.29232788 C345.28179089 61.24105917 345.34688031 63.19049775 345.40859985 65.13998413 C346.41521195 64.62976463 346.41521195 64.62976463 347.44215965 64.10923767 C363.79067712 55.82443541 380.15029312 47.56194964 396.52246666 39.32398987 C404.43975537 35.33959169 412.35314752 31.34779912 420.25772095 27.33822632 C427.1494008 23.84246494 434.04805658 20.36094425 440.95536482 16.89615917 C444.61069403 15.06199059 448.26220356 13.22100879 451.90543747 11.36291504 C455.33920406 9.6119339 458.78203431 7.88024154 462.2325325 6.1624794 C463.49289547 5.53092949 464.74988223 4.89258576 466.00299072 4.24676132 C473.02660196 0.63233411 479.36990329 -2.43580864 487.40859985 -0.86001587 C490.34283181 0.93645267 491.88065341 2.08409123 493.40859985 5.13998413 C494.56278559 13.8220596 491.78451728 21.58599129 489.1156311 29.72982788 C488.65657264 31.16703032 488.19884918 32.60465974 487.74235535 34.04267883 C486.76352473 37.11695667 485.77590026 40.1882085 484.78109741 43.25735474 C483.19476222 48.15197089 481.62842334 53.05284279 480.06533813 57.95492554 C478.44714719 63.02670507 476.82768309 68.09805813 475.20126343 73.16720581 C471.74579614 83.93726192 468.32330265 94.71695708 464.9437561 105.51107788 C464.72771414 106.20086164 464.51167217 106.89064541 464.28908348 107.60133171 C462.14523703 114.44798823 460.00712794 121.2964258 457.87295055 128.14610195 C456.80786025 131.56369326 455.7413441 134.98083835 454.67422485 138.39779663 C454.46329508 139.07350267 454.2523653 139.74920872 454.03504372 140.4453907 C451.05429984 149.98580611 448.00705564 159.50302613 444.91540527 169.00805664 C443.16198283 174.39970726 441.4256929 179.79683216 439.69308662 185.19520378 C438.2843076 189.57914847 436.85331157 193.95495298 435.40444183 198.32579994 C434.51321114 201.03312127 433.64435051 203.74725832 432.78113556 206.46362686 C432.19242436 208.29350653 431.5773119 210.11482897 430.96102905 211.93560791 C428.20833103 220.70731418 428.47221617 228.06793614 429.40859985 237.13998413 C429.48477223 240.02607861 429.41269479 242.87230799 429.33828735 245.76107788 C429.32741097 247.22525104 429.3196843 248.68945044 429.31484985 250.15365601 C429.30695024 252.38307402 429.2826297 254.60586126 429.20645142 256.83407593 C428.73398769 265.92088531 428.73398769 265.92088531 432.6781311 273.73983765 C435.49760041 275.77587931 438.36490007 277.46301812 441.40859985 279.13998413 C442.7359588 280.15468795 444.03776658 281.20459092 445.29922485 282.30014038 C445.85972534 282.7797522 446.42022583 283.25936401 446.99771118 283.75350952 C447.81985107 284.47075195 447.81985107 284.47075195 448.65859985 285.20248413 C449.25503296 285.71996216 449.85146606 286.23744019 450.4659729 286.77059937 C458.30774825 293.61993526 464.99278228 300.91971786 471.40859985 309.13998413 C472.19234985 310.13385132 472.97609985 311.12771851 473.78359985 312.15170288 C479.25752606 319.31686833 483.74886401 326.96350817 488.03359985 334.88998413 C488.56703003 335.84807983 489.10046021 336.80617554 489.65005493 337.79330444 C492.86548471 343.92286613 494.73386998 349.1855171 493.40859985 356.13998413 C491.9671936 358.77670288 491.9671936 358.77670288 489.84609985 360.82748413 C489.03785767 361.63572632 488.22961548 362.44396851 487.3968811 363.27670288 C486.70006226 363.94065063 486.70006226 363.94065063 485.98916626 364.61801147 C484.14914637 366.38981932 482.36332135 368.20902544 480.5765686 370.03451538 C477.95059724 372.70557053 475.3208765 375.37221214 472.66641235 378.01498413 C472.11098755 378.56928101 471.55556274 379.12357788 470.98330688 379.69467163 C467.21735235 383.15117564 464.38613218 383.98248455 459.4125061 383.91732788 C454.62066766 382.67730727 451.45626846 379.63605766 447.72817993 376.49276733 C436.87479065 367.36675467 424.56485752 362.86658001 410.40859985 363.13998413 C410.10268921 363.80304565 409.79677856 364.46610718 409.4815979 365.14926147 C400.97419086 383.48825955 392.04613592 400.79887895 379.4046936 416.63607788 C376.32145566 420.06325842 376.32145566 420.06325842 375.6078186 424.33139038 C376.43174611 427.22116541 377.40467458 430.03700336 378.42739868 432.86190796 C383.83455946 447.95572034 386.99360545 464.09353401 387.40859985 480.13998413 C387.4343811 481.02428101 387.46016235 481.90857788 387.48672485 482.81967163 C387.56687943 485.90562268 387.61729973 488.99078014 387.65859985 492.07748413 C387.68019165 493.07384888 387.70178345 494.07021362 387.72402954 495.09677124 C387.74787796 500.51265616 387.58226765 504.52036956 384.40859985 509.13998413 C380.71024304 511.60555534 378.80397492 511.41536699 374.38613892 511.46224976 C373.67518066 511.47217957 372.96422241 511.48210938 372.23171997 511.49234009 C369.87918216 511.52155275 367.52691426 511.53518319 365.17422485 511.54623413 C363.53618362 511.55774174 361.89814244 511.56925715 360.26010132 511.58078003 C356.82358548 511.60179275 353.38716308 511.61348202 349.95059204 511.62045288 C345.55761278 511.63140693 341.16587828 511.67942715 336.77328873 511.73639679 C333.38795431 511.77374466 330.00291649 511.78406574 326.61739349 511.78712463 C324.99869753 511.79316004 323.3800057 511.80915806 321.76151276 511.835495 C307.51824574 512.05067756 307.51824574 512.05067756 303.00186157 508.29354858 C300.36015613 505.41338597 298.25186739 502.19989232 296.28359985 498.82748413 C295.66227173 497.77947632 295.0409436 496.73146851 294.40078735 495.65170288 C292.02798308 491.50482784 289.71847341 487.32213918 287.40859985 483.13998413 C286.13887329 483.47771851 284.86914673 483.81545288 283.5609436 484.16342163 C251.32218908 492.59970177 219.51634148 492.32080964 187.40859985 483.13998413 C186.55588501 484.71586304 186.55588501 484.71586304 185.6859436 486.32357788 C174.42272086 506.89727406 174.42272086 506.89727406 167.40859985 511.13998413 C164.15190125 511.53439331 164.15190125 511.53439331 160.24087524 511.55990601 C159.52655838 511.56837555 158.81224152 511.57684509 158.07627869 511.58557129 C155.71942245 511.60893436 153.36321929 511.60996368 151.0062561 511.60873413 C149.36485025 511.6158361 147.72344689 511.62353515 146.08204651 511.63180542 C142.64305723 511.64524855 139.2042975 511.64681978 135.76528931 511.64096069 C131.36215888 511.63506423 126.96013096 511.66565354 122.55721378 511.70607758 C119.16764918 511.73194998 115.77835022 511.73483247 112.38870049 511.73118591 C110.76560126 511.73287757 109.14248982 511.74252463 107.51948738 511.7603302 C105.24748456 511.7825133 102.97771536 511.77282481 100.70571899 511.75521851 C98.76856773 511.75830017 98.76856773 511.75830017 96.7922821 511.76144409 C92.5288317 510.97840256 91.07226442 509.48981048 88.40859985 506.13998413 C81.35546363 484.98057546 88.95166044 450.32780802 97.56582642 430.30111694 C99.15298274 426.4996053 99.9182628 424.04811592 98.40859985 420.13998413 C96.7852113 417.8908912 96.7852113 417.8908912 94.65859985 415.63998413 C81.54241742 400.05022688 72.81105253 381.55113964 64.40859985 363.13998413 C58.35197386 362.87220093 53.22367686 363.35293643 47.47109985 365.26498413 C46.77798706 365.49089233 46.08487427 365.71680054 45.37075806 365.94955444 C36.90367109 368.83473825 30.5746103 373.08344346 23.90859985 379.01498413 C20.36856939 381.96084869 17.87455697 383.81217551 13.22109985 384.13998413 C9.46548103 383.65319558 7.47225284 382.71521572 4.69766235 380.15951538 C4.01002808 379.52868042 3.3223938 378.89784546 2.61392212 378.24789429 C-1.31756121 374.49006997 -5.19271912 370.68251617 -9.02890015 366.82748413 C-9.84294312 366.01730835 -10.65698608 365.20713257 -11.49569702 364.37240601 C-12.26848999 363.59832397 -13.04128296 362.82424194 -13.8374939 362.02670288 C-14.53544067 361.32762817 -15.23338745 360.62855347 -15.95248413 359.90829468 C-19.00698465 356.61263741 -19.17523974 353.6652463 -19.1187439 349.29623413 C-16.40915252 333.07882798 -2.17545614 315.10456916 8.40859985 303.13998413 C9.26195923 302.16545288 10.1153186 301.19092163 10.99453735 300.18685913 C26.37373175 282.87100483 26.37373175 282.87100483 34.64297485 278.3855896 C39.68415701 275.58270065 43.73571319 273.31162594 45.5350647 267.50448608 C46.03779779 263.21079662 45.85777273 258.94815946 45.65859985 254.63998413 C45.62016608 252.4623946 45.60004728 250.28509595 45.58006287 248.10726929 C45.55927973 246.63400067 45.52321907 245.16087815 45.47285461 243.68832397 C45.36195623 240.12708821 45.43958597 236.92677971 45.95474243 233.38217163 C48.11581041 218.35131723 42.10883628 204.43705886 37.35680389 190.40033722 C36.06450419 186.5604028 34.80728279 182.70902989 33.54776001 178.85824585 C31.7476936 173.3626514 29.93912759 167.87002799 28.11811447 162.38133812 C24.07409656 150.18761352 20.19550102 137.94467663 16.35562134 125.68511963 C14.56211118 119.96317483 12.75649819 114.24505372 10.9515686 108.52670288 C10.5909433 107.38345047 10.23031799 106.24019806 9.85876465 105.06230164 C6.92280297 95.75829921 3.97438868 86.45827701 1.0218811 77.15951538 C0.7949054 76.44466728 0.56792969 75.72981918 0.33407593 74.99330902 C-1.67580948 68.66377499 -3.68642723 62.33447378 -5.69815063 56.00552368 C-5.90737561 55.34729016 -6.11660059 54.68905664 -6.33216572 54.01087666 C-6.74569919 52.70990538 -7.15925213 51.4089403 -7.57282543 50.10798168 C-8.91623716 45.88135188 -10.25663421 41.6537739 -11.59603882 37.4258728 C-12.80503438 33.6102561 -14.02221065 29.79757211 -15.2527771 25.98886108 C-15.71201201 24.55486248 -16.17124117 23.12086203 -16.63046265 21.68685913 C-17.00509644 20.52895874 -17.37973022 19.37105835 -17.76571655 18.17807007 C-18.95562459 13.79982771 -19.56399782 9.60867615 -18.59140015 5.13998413 C-14.24609195 -1.95735259 -7.62617231 -2.53092106 0 0 Z " fill="#90268C" transform="translate(18.591400146484375,0.860015869140625)"/>
<path d="M0 0 C2.74907918 1.24266596 5.41043419 2.59139535 8.0765686 4.00326538 C9.57163689 4.76319038 9.57163689 4.76319038 11.09690857 5.53846741 C14.2733171 7.15775737 17.43479294 8.80393797 20.59609985 10.45248413 C23.69963077 12.04834281 26.80606453 13.63844135 29.91278076 15.22808838 C31.9864523 16.28968626 34.05893727 17.35360501 36.13024902 18.4197998 C44.09097991 22.50684805 52.1311038 26.40316158 60.21626282 30.23698425 C68.27421891 34.06025686 76.25681075 38.02016377 84.21994019 42.03649902 C97.94957424 48.9587478 111.73092199 55.74953116 125.64151001 62.30233765 C126.90398804 62.90078503 128.15896309 63.51516575 129.40859985 64.13998413 C129.41270874 63.05056519 129.41681763 61.96114624 129.42105103 60.8387146 C129.44289793 56.77915775 129.49724415 52.72056251 129.56118774 48.66146851 C129.58431953 46.90798185 129.59875214 45.15435721 129.60415649 43.40072632 C129.61348185 40.87283829 129.65454621 38.34710596 129.7015686 35.81967163 C129.69763596 35.04130951 129.69370331 34.26294739 129.68965149 33.46099854 C129.84216195 27.71314099 131.28814408 25.16338253 135.40859985 21.13998413 C138.68630702 19.50113055 141.87875305 19.48400703 145.40859985 20.13998413 C151.06158643 23.40669053 155.72572711 28.19934974 160.24453735 32.85092163 C160.84996368 33.4639212 161.45539001 34.07692078 162.0791626 34.70849609 C163.98564736 36.63914049 165.88539702 38.57619869 167.78359985 40.51498413 C170.30655016 43.09098271 172.83597551 45.66036425 175.36953735 48.22592163 C176.23510757 49.11638687 176.23510757 49.11638687 177.11816406 50.02484131 C178.51076744 51.43465384 179.95522425 52.79290771 181.40859985 54.13998413 C182.06859985 54.13998413 182.72859985 54.13998413 183.40859985 54.13998413 C184.80019458 52.46490454 184.80019458 52.46490454 186.18667603 50.2437439 C186.74453293 49.39188004 187.30238983 48.54001617 187.87715149 47.66233826 C188.47920914 46.72812546 189.08126678 45.79391266 189.7015686 44.83139038 C190.3258223 43.87610947 190.95007599 42.92082855 191.59324646 41.93659973 C193.6008137 38.86281503 195.59907249 35.78312509 197.59609985 32.70248413 C199.57628052 29.65466068 201.55852416 26.60824037 203.5453949 23.56477356 C204.78284416 21.66859552 206.01638674 19.76986008 207.24531555 17.8681488 C211.50675852 11.32883875 215.86915345 4.67943054 221.40859985 -0.86001587 C226.27389596 -1.60057421 230.24000943 -1.5754794 234.47109985 1.01498413 C238.12212963 5.01933937 237.62492865 8.90774314 237.7250061 14.08529663 C237.7457872 14.97030853 237.7665683 15.85532043 237.78797913 16.76715088 C237.85346584 19.59968154 237.91235548 22.43230638 237.97109985 25.26498413 C238.01428591 27.1829627 238.05790023 29.10093167 238.10195923 31.01889038 C238.20914633 35.72582464 238.31041625 40.4328538 238.40859985 45.13998413 C238.93842468 44.60793869 239.46824951 44.07589325 240.01412964 43.52772522 C245.01385749 38.50793925 250.01600338 33.4905783 255.02086258 28.47590923 C257.59366418 25.89789472 260.16552954 23.3189606 262.73526001 20.73788452 C265.21639262 18.24586649 267.69997798 15.75631718 270.18526459 13.26844215 C271.59167349 11.8592933 272.99554765 10.4476161 274.39938354 9.03590393 C275.25997375 8.17523819 276.12056396 7.31457245 277.00723267 6.42782593 C278.13974457 5.29198311 278.13974457 5.29198311 279.2951355 4.13319397 C283.98462914 -0.28947104 286.57025211 -1.40332871 292.99453735 -1.22329712 C296.37706382 -0.71427615 298.13182219 0.64287315 300.40859985 3.13998413 C301.63940494 5.60159431 301.52903963 7.20495406 301.52212524 9.95687866 C301.52204971 10.9577652 301.52197418 11.95865173 301.52189636 12.98986816 C301.51673508 14.07323456 301.51157379 15.15660095 301.5062561 16.27279663 C301.50413368 17.93325516 301.50413368 17.93325516 301.50196838 19.6272583 C301.49635758 23.17319406 301.48380322 26.71906736 301.47109985 30.26498413 C301.46608625 32.6647228 301.4615231 35.06446246 301.45742798 37.46420288 C301.44638464 43.35615138 301.42963595 49.2480633 301.40859985 55.13998413 C302.51932861 54.55712646 302.51932861 54.55712646 303.65249634 53.9624939 C306.43670099 52.51029066 309.22727448 51.07135442 312.02261353 49.64071655 C313.81200065 48.72002908 315.59379394 47.7846304 317.37539673 46.84896851 C323.85179863 43.54691571 329.08425644 41.16984894 336.40859985 41.13998413 C340.18756236 42.70085995 342.37005968 44.62194943 344.40859985 48.13998413 C344.91397188 51.04883732 345.01055807 53.94245884 345.09609985 56.88998413 C345.13026001 57.68275757 345.16442017 58.47553101 345.19961548 59.29232788 C345.28179089 61.24105917 345.34688031 63.19049775 345.40859985 65.13998413 C346.41521195 64.62976463 346.41521195 64.62976463 347.44215965 64.10923767 C363.79067712 55.82443541 380.15029312 47.56194964 396.52246666 39.32398987 C404.43975537 35.33959169 412.35314752 31.34779912 420.25772095 27.33822632 C427.1494008 23.84246494 434.04805658 20.36094425 440.95536482 16.89615917 C444.61069403 15.06199059 448.26220356 13.22100879 451.90543747 11.36291504 C455.33920406 9.6119339 458.78203431 7.88024154 462.2325325 6.1624794 C463.49289547 5.53092949 464.74988223 4.89258576 466.00299072 4.24676132 C473.02660196 0.63233411 479.36990329 -2.43580864 487.40859985 -0.86001587 C490.34283181 0.93645267 491.88065341 2.08409123 493.40859985 5.13998413 C494.56278559 13.8220596 491.78451728 21.58599129 489.1156311 29.72982788 C488.65657264 31.16703032 488.19884918 32.60465974 487.74235535 34.04267883 C486.76352473 37.11695667 485.77590026 40.1882085 484.78109741 43.25735474 C483.19476222 48.15197089 481.62842334 53.05284279 480.06533813 57.95492554 C478.44714719 63.02670507 476.82768309 68.09805813 475.20126343 73.16720581 C471.74579614 83.93726192 468.32330265 94.71695708 464.9437561 105.51107788 C464.72771414 106.20086164 464.51167217 106.89064541 464.28908348 107.60133171 C462.14523703 114.44798823 460.00712794 121.2964258 457.87295055 128.14610195 C456.80786025 131.56369326 455.7413441 134.98083835 454.67422485 138.39779663 C454.46329508 139.07350267 454.2523653 139.74920872 454.03504372 140.4453907 C451.05429984 149.98580611 448.00705564 159.50302613 444.91540527 169.00805664 C443.16198283 174.39970726 441.4256929 179.79683216 439.69308662 185.19520378 C438.2843076 189.57914847 436.85331157 193.95495298 435.40444183 198.32579994 C434.51321114 201.03312127 433.64435051 203.74725832 432.78113556 206.46362686 C432.19242436 208.29350653 431.5773119 210.11482897 430.96102905 211.93560791 C428.20833103 220.70731418 428.47221617 228.06793614 429.40859985 237.13998413 C429.48477223 240.02607861 429.41269479 242.87230799 429.33828735 245.76107788 C429.32741097 247.22525104 429.3196843 248.68945044 429.31484985 250.15365601 C429.30695024 252.38307402 429.2826297 254.60586126 429.20645142 256.83407593 C428.73398769 265.92088531 428.73398769 265.92088531 432.6781311 273.73983765 C435.49760041 275.77587931 438.36490007 277.46301812 441.40859985 279.13998413 C442.7359588 280.15468795 444.03776658 281.20459092 445.29922485 282.30014038 C445.85972534 282.7797522 446.42022583 283.25936401 446.99771118 283.75350952 C447.81985107 284.47075195 447.81985107 284.47075195 448.65859985 285.20248413 C449.25503296 285.71996216 449.85146606 286.23744019 450.4659729 286.77059937 C458.30774825 293.61993526 464.99278228 300.91971786 471.40859985 309.13998413 C472.19234985 310.13385132 472.97609985 311.12771851 473.78359985 312.15170288 C479.25752606 319.31686833 483.74886401 326.96350817 488.03359985 334.88998413 C488.56703003 335.84807983 489.10046021 336.80617554 489.65005493 337.79330444 C492.86548471 343.92286613 494.73386998 349.1855171 493.40859985 356.13998413 C491.9671936 358.77670288 491.9671936 358.77670288 489.84609985 360.82748413 C489.03785767 361.63572632 488.22961548 362.44396851 487.3968811 363.27670288 C486.70006226 363.94065063 486.70006226 363.94065063 485.98916626 364.61801147 C484.14914637 366.38981932 482.36332135 368.20902544 480.5765686 370.03451538 C477.95059724 372.70557053 475.3208765 375.37221214 472.66641235 378.01498413 C472.11098755 378.56928101 471.55556274 379.12357788 470.98330688 379.69467163 C467.21735235 383.15117564 464.38613218 383.98248455 459.4125061 383.91732788 C454.62066766 382.67730727 451.45626846 379.63605766 447.72817993 376.49276733 C436.87479065 367.36675467 424.56485752 362.86658001 410.40859985 363.13998413 C410.10268921 363.80304565 409.79677856 364.46610718 409.4815979 365.14926147 C400.97419086 383.48825955 392.04613592 400.79887895 379.4046936 416.63607788 C376.32145566 420.06325842 376.32145566 420.06325842 375.6078186 424.33139038 C376.43174611 427.22116541 377.40467458 430.03700336 378.42739868 432.86190796 C383.83455946 447.95572034 386.99360545 464.09353401 387.40859985 480.13998413 C387.4343811 481.02428101 387.46016235 481.90857788 387.48672485 482.81967163 C387.56687943 485.90562268 387.61729973 488.99078014 387.65859985 492.07748413 C387.68019165 493.07384888 387.70178345 494.07021362 387.72402954 495.09677124 C387.74787796 500.51265616 387.58226765 504.52036956 384.40859985 509.13998413 C380.71024304 511.60555534 378.80397492 511.41536699 374.38613892 511.46224976 C373.67518066 511.47217957 372.96422241 511.48210938 372.23171997 511.49234009 C369.87918216 511.52155275 367.52691426 511.53518319 365.17422485 511.54623413 C363.53618362 511.55774174 361.89814244 511.56925715 360.26010132 511.58078003 C356.82358548 511.60179275 353.38716308 511.61348202 349.95059204 511.62045288 C345.55761278 511.63140693 341.16587828 511.67942715 336.77328873 511.73639679 C333.38795431 511.77374466 330.00291649 511.78406574 326.61739349 511.78712463 C324.99869753 511.79316004 323.3800057 511.80915806 321.76151276 511.835495 C307.51824574 512.05067756 307.51824574 512.05067756 303.00186157 508.29354858 C300.36015613 505.41338597 298.25186739 502.19989232 296.28359985 498.82748413 C295.66227173 497.77947632 295.0409436 496.73146851 294.40078735 495.65170288 C292.02798308 491.50482784 289.71847341 487.32213918 287.40859985 483.13998413 C286.13887329 483.47771851 284.86914673 483.81545288 283.5609436 484.16342163 C251.32218908 492.59970177 219.51634148 492.32080964 187.40859985 483.13998413 C186.55588501 484.71586304 186.55588501 484.71586304 185.6859436 486.32357788 C174.42272086 506.89727406 174.42272086 506.89727406 167.40859985 511.13998413 C164.15190125 511.53439331 164.15190125 511.53439331 160.24087524 511.55990601 C159.52655838 511.56837555 158.81224152 511.57684509 158.07627869 511.58557129 C155.71942245 511.60893436 153.36321929 511.60996368 151.0062561 511.60873413 C149.36485025 511.6158361 147.72344689 511.62353515 146.08204651 511.63180542 C142.64305723 511.64524855 139.2042975 511.64681978 135.76528931 511.64096069 C131.36215888 511.63506423 126.96013096 511.66565354 122.55721378 511.70607758 C119.16764918 511.73194998 115.77835022 511.73483247 112.38870049 511.73118591 C110.76560126 511.73287757 109.14248982 511.74252463 107.51948738 511.7603302 C105.24748456 511.7825133 102.97771536 511.77282481 100.70571899 511.75521851 C98.76856773 511.75830017 98.76856773 511.75830017 96.7922821 511.76144409 C92.5288317 510.97840256 91.07226442 509.48981048 88.40859985 506.13998413 C81.35546363 484.98057546 88.95166044 450.32780802 97.56582642 430.30111694 C99.15298274 426.4996053 99.9182628 424.04811592 98.40859985 420.13998413 C96.7852113 417.8908912 96.7852113 417.8908912 94.65859985 415.63998413 C81.54241742 400.05022688 72.81105253 381.55113964 64.40859985 363.13998413 C58.35197386 362.87220093 53.22367686 363.35293643 47.47109985 365.26498413 C46.77798706 365.49089233 46.08487427 365.71680054 45.37075806 365.94955444 C36.90367109 368.83473825 30.5746103 373.08344346 23.90859985 379.01498413 C20.36856939 381.96084869 17.87455697 383.81217551 13.22109985 384.13998413 C9.46548103 383.65319558 7.47225284 382.71521572 4.69766235 380.15951538 C4.01002808 379.52868042 3.3223938 378.89784546 2.61392212 378.24789429 C-1.31756121 374.49006997 -5.19271912 370.68251617 -9.02890015 366.82748413 C-9.84294312 366.01730835 -10.65698608 365.20713257 -11.49569702 364.37240601 C-12.26848999 363.59832397 -13.04128296 362.82424194 -13.8374939 362.02670288 C-14.53544067 361.32762817 -15.23338745 360.62855347 -15.95248413 359.90829468 C-19.00698465 356.61263741 -19.17523974 353.6652463 -19.1187439 349.29623413 C-16.40915252 333.07882798 -2.17545614 315.10456916 8.40859985 303.13998413 C9.26195923 302.16545288 10.1153186 301.19092163 10.99453735 300.18685913 C26.37373175 282.87100483 26.37373175 282.87100483 34.64297485 278.3855896 C39.68415701 275.58270065 43.73571319 273.31162594 45.5350647 267.50448608 C46.03779779 263.21079662 45.85777273 258.94815946 45.65859985 254.63998413 C45.62016608 252.4623946 45.60004728 250.28509595 45.58006287 248.10726929 C45.55927973 246.63400067 45.52321907 245.16087815 45.47285461 243.68832397 C45.36195623 240.12708821 45.43958597 236.92677971 45.95474243 233.38217163 C48.11581041 218.35131723 42.10883628 204.43705886 37.35680389 190.40033722 C36.06450419 186.5604028 34.80728279 182.70902989 33.54776001 178.85824585 C31.7476936 173.3626514 29.93912759 167.87002799 28.11811447 162.38133812 C24.07409656 150.18761352 20.19550102 137.94467663 16.35562134 125.68511963 C14.56211118 119.96317483 12.75649819 114.24505372 10.9515686 108.52670288 C10.5909433 107.38345047 10.23031799 106.24019806 9.85876465 105.06230164 C6.92280297 95.75829921 3.97438868 86.45827701 1.0218811 77.15951538 C0.7949054 76.44466728 0.56792969 75.72981918 0.33407593 74.99330902 C-1.67580948 68.66377499 -3.68642723 62.33447378 -5.69815063 56.00552368 C-5.90737561 55.34729016 -6.11660059 54.68905664 -6.33216572 54.01087666 C-6.74569919 52.70990538 -7.15925213 51.4089403 -7.57282543 50.10798168 C-8.91623716 45.88135188 -10.25663421 41.6537739 -11.59603882 37.4258728 C-12.80503438 33.6102561 -14.02221065 29.79757211 -15.2527771 25.98886108 C-15.71201201 24.55486248 -16.17124117 23.12086203 -16.63046265 21.68685913 C-17.00509644 20.52895874 -17.37973022 19.37105835 -17.76571655 18.17807007 C-18.95562459 13.79982771 -19.56399782 9.60867615 -18.59140015 5.13998413 C-14.24609195 -1.95735259 -7.62617231 -2.53092106 0 0 Z M10.40859985 31.13998413 C11.82064 38.01661963 13.72734344 44.59598302 15.90859985 51.26498413 C16.25653595 52.340737 16.60447205 53.41648987 16.96295166 54.52484131 C17.71504986 56.84931454 18.4689034 59.17322041 19.22433472 61.49661255 C21.05033925 67.11428447 22.86471652 72.73570735 24.67876053 78.35725021 C25.09929689 79.66033612 25.51997007 80.96337788 25.94077682 82.2663765 C30.69781625 96.99721119 35.37507123 111.75271282 40.03359985 126.51498413 C40.39824341 127.6688562 40.76288696 128.82272827 41.13858032 130.01156616 C46.30565573 146.36422536 51.38726774 162.74199342 56.40859985 179.13998413 C57.06859985 179.13998413 57.72859985 179.13998413 58.40859985 179.13998413 C58.84172485 178.19123413 59.27484985 177.24248413 59.72109985 176.26498413 C61.40859985 173.13998413 61.40859985 173.13998413 64.40859985 171.13998413 C73.09188431 170.58866448 73.09188431 170.58866448 76.40859985 173.13998413 C78.96796569 176.59512801 78.57849822 179.97093969 78.40859985 184.13998413 C77.7093811 187.14779663 77.7093811 187.14779663 76.72109985 190.26498413 C70.1940749 212.32262521 66.47342427 234.28232193 66.25234985 257.34310913 C66.23709259 258.49907341 66.23709259 258.49907341 66.2215271 259.6783905 C66.17479441 263.45339447 66.16621961 267.22134598 66.22598267 270.9961853 C66.25586251 280.82558693 66.25586251 280.82558693 64.0296936 284.27914429 C62.24041138 285.85567649 60.49390365 286.99075121 58.40859985 288.13998413 C57.34641235 288.89279663 56.28422485 289.64560913 55.18984985 290.42123413 C53.5656311 291.51951538 53.5656311 291.51951538 51.90859985 292.63998413 C33.2250376 305.68809793 17.8760349 323.2996878 7.05703735 343.34310913 C6.54536011 344.28911987 6.54536011 344.28911987 6.02334595 345.25424194 C5.25501472 347.61110865 5.5709837 348.83548742 6.40859985 351.13998413 C7.60739815 352.91924397 7.60739815 352.91924397 9.15859985 354.45248413 C9.6484436 354.98486694 10.13828735 355.51724976 10.64297485 356.06576538 C12.39507197 357.35505783 12.39507197 357.35505783 14.72891235 357.04623413 C18.05137414 355.92260274 20.60962913 354.2636269 23.53359985 352.32748413 C34.25389548 345.5137241 45.06566868 343.18423371 57.40859985 341.13998413 C57.26422485 340.55990601 57.11984985 339.97982788 56.97109985 339.38217163 C54.83098252 330.37584454 54.83098252 330.37584454 55.40859985 326.13998413 C57.2085376 323.44007751 58.49237285 321.59809763 61.40859985 320.13998413 C66.45914374 319.75881101 69.37560737 320.02618411 73.40859985 323.13998413 C74.79556274 325.92953491 74.79556274 325.92953491 75.8812561 329.33529663 C76.30381433 330.60950986 76.726509 331.88367785 77.14932251 333.1578064 C77.47165863 334.16244431 77.47165863 334.16244431 77.80050659 335.18737793 C84.42247227 355.70329682 92.9068795 375.47846283 105.40859985 393.13998413 C106.16870331 394.30646324 106.92647002 395.47446796 107.68203735 396.64389038 C111.14176925 402.37005471 111.14176925 402.37005471 116.54141235 405.74154663 C118.504997 405.64448731 120.45930998 405.39562871 122.40859985 405.13998413 C127.90859985 408.13998413 127.90859985 408.13998413 129.40859985 411.13998413 C130.20260077 416.69799058 129.61251105 419.34389395 126.28359985 423.88998413 C125.64422485 424.74205444 125.00484985 425.59412476 124.34609985 426.47201538 C112.93290439 442.18816962 109.24954884 464.05561823 109.3656311 483.09310913 C109.36873291 483.77582886 109.37183472 484.45854858 109.37503052 485.16195679 C109.38302219 486.82131772 109.39534772 488.48065687 109.40859985 490.13998413 C116.13400779 490.36856438 122.85841228 490.52593942 129.58682251 490.6343689 C131.8743126 490.67957429 134.16154341 490.74095325 136.44815063 490.81893921 C139.74030447 490.92839152 143.02901861 490.97920622 146.32266235 491.01889038 C147.85112289 491.08856773 147.85112289 491.08856773 149.41046143 491.15965271 C154.94332059 491.20112033 154.94332059 491.20112033 159.36054993 488.20542908 C160.91702163 485.90747732 162.19946651 483.6358089 163.40859985 481.13998413 C163.74558395 480.51095184 164.08256805 479.88191956 164.42976379 479.23382568 C165.33425982 477.50216174 166.15377825 475.72695827 166.97109985 473.95248413 C167.26355591 473.32172974 167.55601196 472.69097534 167.85733032 472.04110718 C170.36597025 466.51316446 172.29167536 460.87071171 174.07266235 455.06576538 C175.66238598 451.58417768 177.14387306 450.11041095 180.40859985 448.13998413 C182.76016235 447.93295288 182.76016235 447.93295288 185.03359985 448.32748413 C186.16668579 448.50344116 186.16668579 448.50344116 187.32266235 448.68295288 C189.40859985 449.13998413 189.40859985 449.13998413 192.40859985 450.13998413 C193.06859985 454.09998413 193.72859985 458.05998413 194.40859985 462.13998413 C196.84496101 462.76970859 199.28256281 463.39378499 201.72109985 464.01498413 C202.7275354 464.27601929 202.7275354 464.27601929 203.75430298 464.54232788 C214.56006664 467.28181726 224.7370603 468.50020749 235.90859985 468.45248413 C237.22634399 468.44901978 238.54408813 468.44555542 239.90176392 468.44198608 C253.74966849 468.28866637 267.30157625 466.89085901 280.40859985 462.13998413 C280.46918579 461.52510132 280.52977173 460.91021851 280.5921936 460.27670288 C280.67598267 459.46846069 280.75977173 458.66021851 280.84609985 457.82748413 C280.92731079 457.02697632 281.00852173 456.22646851 281.0921936 455.40170288 C281.40859985 453.13998413 281.40859985 453.13998413 282.40859985 450.13998413 C286.27776081 447.72175853 289.85404126 448.05205189 294.2250061 448.36264038 C297.4853692 449.52330631 298.54319194 451.25322685 300.40859985 454.13998413 C301.40240321 456.72667231 302.27836575 459.25112588 303.09609985 461.88998413 C305.25600813 468.43657696 307.90472537 474.49975111 311.15859985 480.57748413 C311.5474939 481.30483765 311.93638794 482.03219116 312.33706665 482.78158569 C313.83980739 485.52529308 315.18535346 487.91673774 317.40859985 490.13998413 C319.55079868 490.43192159 319.55079868 490.43192159 322.04190063 490.36703491 C323.00274567 490.36688385 323.9635907 490.36673279 324.95355225 490.36657715 C325.99317108 490.35625458 327.03278992 490.34593201 328.10391235 490.33529663 C329.69778275 490.33105179 329.69778275 490.33105179 331.32385254 490.32672119 C334.72721484 490.31550053 338.13031671 490.2903925 341.53359985 490.26498413 C343.83698148 490.25495677 346.14036721 490.2458305 348.4437561 490.23764038 C354.09879331 490.21555506 359.75367798 490.18205902 365.40859985 490.13998413 C365.42393846 487.78579212 365.43501931 485.4317026 365.4437561 483.07748413 C365.45028198 481.76650757 365.45680786 480.45553101 365.46353149 479.10482788 C365.18779006 459.202424 359.43152311 436.57455984 346.40859985 421.13998413 C345.20669084 417.53425709 345.08189671 414.92974064 345.40859985 411.13998413 C347.2042239 408.38669392 348.46114907 406.61370952 351.40859985 405.13998413 C352.3231897 405.30047241 352.3231897 405.30047241 353.2562561 405.46420288 C355.9816654 405.91122769 357.73587728 405.90003961 360.40859985 405.13998413 C364.09981078 401.61088719 366.71366298 397.43820697 369.40859985 393.13998413 C370.07762329 392.11904663 370.74664673 391.09810913 371.4359436 390.04623413 C381.96943354 373.52638457 390.06300694 356.08486979 396.32266235 337.53060913 C396.78648315 336.16126221 396.78648315 336.16126221 397.25967407 334.76425171 C397.84544927 333.01344887 398.41807976 331.25817595 398.97549438 329.49813843 C400.90542745 323.66969301 400.90542745 323.66969301 403.3343811 321.11264038 C407.02376391 319.38259082 410.4394681 319.39842037 414.40859985 320.13998413 C417.47109985 322.20248413 417.47109985 322.20248413 419.40859985 325.13998413 C419.97862128 330.17517341 419.11041763 335.13953249 418.40859985 340.13998413 C419.29547485 340.38748413 420.18234985 340.63498413 421.09609985 340.88998413 C434.014658 344.60341583 445.89741275 348.0234743 456.96328735 355.84701538 C459.26038355 357.33299555 459.26038355 357.33299555 461.5218811 357.01107788 C463.62830114 356.03854855 465.0499369 354.99894499 466.72109985 353.38998413 C467.51967407 352.65521851 467.51967407 352.65521851 468.3343811 351.90560913 C469.61806335 350.16136954 469.61806335 350.16136954 469.32266235 347.87435913 C468.14359495 344.34723443 466.40578799 341.29256762 464.47109985 338.13998413 C464.07140991 337.48352905 463.67171997 336.82707397 463.25991821 336.15072632 C450.87094535 316.18790847 433.43979928 296.88125968 412.5453186 285.59310913 C409.71796453 283.6703016 409.3895511 282.42189874 408.40859985 279.13998413 C408.11722389 276.18413138 408.10724374 273.24133763 408.1000061 270.27279663 C408.07736407 268.49308681 408.05423354 266.71338316 408.03067017 264.9336853 C408.02152588 264.00736298 408.01238159 263.08104065 408.00296021 262.12664795 C407.70775855 235.61194045 404.99809502 210.7504059 397.02578735 185.35922241 C396.11546461 182.08594958 395.88150625 179.50020585 396.40859985 176.13998413 C398.43682192 173.06493777 399.90613162 171.47416784 403.5687561 170.65951538 C407.90633676 170.39158469 409.86003537 170.72856077 413.40859985 173.38998413 C415.16841772 175.8097337 416.08327319 177.21204419 416.40859985 180.13998413 C417.06859985 180.13998413 417.72859985 180.13998413 418.40859985 180.13998413 C424.24928361 162.95163232 424.24928361 162.95163232 429.41641235 145.55404663 C430.86023665 140.5859268 432.53999821 135.70293483 434.2003479 130.80380249 C435.7036063 126.3395088 437.09071011 121.86951657 438.34609985 117.32748413 C440.00287631 111.3589296 441.92558927 105.50584899 443.90859985 99.63998413 C445.87054365 93.83626391 447.77701886 88.04743257 449.40859985 82.13998413 C451.04697831 76.21498619 452.94865783 70.40188372 454.90859985 64.57748413 C457.86922085 55.78278518 457.86922085 55.78278518 460.72109985 46.95248413 C461.00598267 46.05142944 461.29086548 45.15037476 461.5843811 44.22201538 C462.73944471 39.90284388 463.57138959 35.53033851 464.40859985 31.13998413 C450.41433542 37.66502068 436.58803389 44.50071302 422.79458618 51.4390564 C419.08499968 53.30254253 415.37217565 55.15946517 411.65859985 57.01498413 C406.82667497 59.42931453 401.99673394 61.84751193 397.16993713 64.27207947 C367.7698199 79.03974993 367.7698199 79.03974993 353.95547485 85.47592163 C352.7850061 86.02506226 351.61453735 86.57420288 350.40859985 87.13998413 C349.28582642 87.60662476 348.16305298 88.07326538 347.0062561 88.55404663 C344.23755067 89.89506771 344.23755067 89.89506771 343.4203186 92.51498413 C343.31332642 93.38123413 343.20633423 94.24748413 343.09609985 95.13998413 C342.97621704 96.00623413 342.85633423 96.87248413 342.7328186 97.76498413 C342.62582642 98.54873413 342.51883423 99.33248413 342.40859985 100.13998413 C342.07859985 101.12998413 341.74859985 102.11998413 341.40859985 103.13998413 C338.46033223 104.12274001 336.48207482 104.27413138 333.40859985 104.26498413 C332.10922485 104.26885132 332.10922485 104.26885132 330.78359985 104.27279663 C328.40859985 104.13998413 328.40859985 104.13998413 325.40859985 103.13998413 C323.33905537 99.31102236 323.11236588 95.82744399 322.99453735 91.52670288 C322.95586548 90.27953491 322.9171936 89.03236694 322.87734985 87.74740601 C322.8309436 85.80704468 322.8309436 85.80704468 322.78359985 83.82748413 C322.74492798 82.51457397 322.7062561 81.20166382 322.66641235 79.84896851 C322.57226868 76.61277976 322.48663633 73.37659478 322.40859985 70.13998413 C319.99002636 71.17739256 317.57354394 72.21917857 315.15859985 73.26498413 C314.06901978 73.73496826 314.06901978 73.73496826 312.95742798 74.21444702 C308.49762465 76.15948218 304.19771298 78.27346054 299.90859985 80.57748413 C295.00100625 83.05458701 291.8621037 84.1924147 286.40859985 83.13998413 C283.61727331 81.12008244 281.72265711 79.52087322 280.93676758 76.06536865 C280.73349047 73.52051914 280.69032443 71.01714818 280.7015686 68.46420288 C280.6864473 67.53904373 280.67132599 66.61388458 280.65574646 65.66069031 C280.61288019 62.71604011 280.60403249 59.77241522 280.59609985 56.82748413 C280.57295472 54.82680585 280.54758935 52.82615194 280.51992798 50.82553101 C280.45708608 45.93025812 280.42474246 41.03562476 280.40859985 36.13998413 C279.74859985 36.13998413 279.08859985 36.13998413 278.40859985 36.13998413 C276.89534734 37.62963184 276.89534734 37.62963184 275.32339478 39.58969116 C271.34756585 44.26193937 267.10515383 48.60505939 262.7718811 52.94467163 C261.97001877 53.74986237 261.16815643 54.5550531 260.34199524 55.38464355 C258.66001981 57.07164819 256.97671751 58.75733086 255.29214478 60.44174194 C252.71284311 63.02324793 250.14166671 65.61267117 247.57070923 68.20248413 C245.92992257 69.84620196 244.28866315 71.48944802 242.6468811 73.13217163 C241.88015579 73.90608246 241.11343048 74.67999329 240.32347107 75.47735596 C239.60559921 76.19215118 238.88772736 76.90694641 238.14810181 77.6434021 C237.20714409 78.58649734 237.20714409 78.58649734 236.24717712 79.54864502 C232.51423328 82.77961042 229.43403592 83.39487773 224.5062561 83.69857788 C221.08340129 82.7870914 219.62261854 80.84366741 217.40859985 78.13998413 C216.90097253 75.37105656 216.68595715 73.19598101 216.7015686 70.43295288 C216.6864473 69.70755814 216.67132599 68.98216339 216.65574646 68.23478699 C216.61297158 65.932034 216.60404244 63.63059429 216.59609985 61.32748413 C216.57294724 59.76039218 216.54758029 58.19333127 216.51992798 56.62631226 C216.45717791 52.79742068 216.42476284 48.96934429 216.40859985 45.13998413 C214.33294153 47.11603551 212.6705058 49.07582897 211.11196899 51.4781189 C210.68464981 52.13212173 210.25733063 52.78612457 209.81706238 53.45994568 C209.13727577 54.51006081 209.13727577 54.51006081 208.4437561 55.58139038 C207.46948091 57.06663569 206.49486101 58.55165493 205.51992798 60.03646851 C203.99095325 62.373352 202.46491978 64.71200981 200.94497681 67.05477905 C199.47365584 69.31917269 197.9908682 71.57569618 196.5062561 73.83139038 C196.05508926 74.53349136 195.60392242 75.23559235 195.13908386 75.95896912 C191.14235809 82.00181427 191.14235809 82.00181427 187.40859985 83.13998413 C184.09110864 83.65036739 181.62758981 83.83967797 178.64175415 82.12582397 C172.74766633 77.65713436 167.6286465 72.55395861 162.47109985 67.26498413 C160.77664067 65.53630625 159.08014466 63.80962166 157.3812561 62.08529663 C156.64141479 61.32748901 155.90157349 60.5696814 155.13931274 59.78890991 C153.68634291 58.02501865 153.68634291 58.02501865 152.40859985 58.13998413 C152.38878052 59.3255188 152.36896118 60.51105347 152.34854126 61.73251343 C152.27234196 66.1402778 152.18364662 70.54771823 152.09121704 74.95516968 C152.05298646 76.86102899 152.0181233 78.766959 151.98672485 80.67294312 C151.94094564 83.41611966 151.88297255 86.15881201 151.82266235 88.90170288 C151.81111115 89.75084763 151.79955994 90.59999237 151.78765869 91.47486877 C151.59065854 99.41103937 151.59065854 99.41103937 149.40859985 103.13998413 C146.46033223 104.12274001 144.48207482 104.27413138 141.40859985 104.26498413 C140.10922485 104.26885132 140.10922485 104.26885132 138.78359985 104.27279663 C136.40859985 104.13998413 136.40859985 104.13998413 133.40859985 103.13998413 C132.06954996 100.75945098 131.34316826 98.88952313 131.58340454 96.13754272 C131.73519325 93.37195248 131.52674097 91.69346951 130.40859985 89.13998413 C126.25527581 85.91096172 121.55513995 83.90080282 116.78359985 81.76498413 C115.39533339 81.11234177 114.00862417 80.4563773 112.6234436 79.79721069 C109.182875 78.16789501 105.72672762 76.57540363 102.26443481 74.9928894 C98.82599956 73.41265214 95.41640046 71.7726807 92.00479126 70.1355896 C90.25134211 69.29431655 88.49574464 68.45750875 86.7381897 67.62484741 C77.22421866 63.10509551 67.8217856 58.36476021 58.40859985 53.63998413 C47.60628527 48.2209851 36.80370808 42.80829206 25.90859985 37.57748413 C25.00883423 37.14307007 24.1090686 36.70865601 23.18203735 36.26107788 C18.98655543 34.26197677 14.87260091 32.4806338 10.40859985 31.13998413 Z " fill="#31385A" transform="translate(18.591400146484375,0.860015869140625)"/>
<path d="M0 0 C32.5807933 9.40662558 64.58741674 16.26978483 98.625 16.3125 C100.01848663 16.31576294 100.01848663 16.31576294 101.44012451 16.3190918 C118.34174304 16.31460116 134.74082121 14.76091965 151.375 11.75 C152.55199463 11.53786865 153.72898926 11.3257373 154.94165039 11.10717773 C170.1887942 8.26737064 185.28746405 4.5736336 200.14453125 0.12109375 C201.09593994 -0.16258057 202.04734863 -0.44625488 203.02758789 -0.73852539 C204.77513646 -1.26744445 206.51836395 -1.81098484 208.25561523 -2.37280273 C213.62096118 -4.01618688 217.48847503 -4.30184832 223 -3.0625 C226.71042367 -0.03358272 226.71042367 -0.03358272 228 2.9375 C229.40787759 20.39518216 211.55584165 41.27281594 201 53.9375 C186.55743868 70.8746383 170.26672306 83.78939997 150 92.9375 C148.95585937 93.42089844 147.91171875 93.90429688 146.8359375 94.40234375 C131.32658106 100.99482213 115.26977685 102.313902 98.625 102.375 C97.55531479 102.3842601 97.55531479 102.3842601 96.46401978 102.39370728 C61.75077016 102.58699986 31.67419547 87.03048445 7 63.25 C-6.85579798 49.00081974 -27.09679401 25.50791723 -28.3125 4.87890625 C-27.72011333 1.19870403 -25.68051743 -0.56899541 -23 -3.0625 C-16.55510713 -6.28494643 -6.43897787 -1.93896514 0 0 Z " fill="#323A5B" transform="translate(156,260.0625)"/>
<path d="M0 0 C3.0220794 1.74450506 5.41651082 3.83302164 7 7 C7.41347143 10.25170749 7.09656616 12.9100996 6 16 C2.98078306 19.70213505 -0.39894454 22.86949988 -4 26 C-3.566875 27.2375 -3.13375 28.475 -2.6875 29.75 C3.48154967 48.2863862 6.78980117 68.2055066 -2.1328125 86.296875 C-7.60084355 95.92930055 -15.57861136 99.93680941 -26 103 C-40.61022024 106.43951798 -55.35141609 107.22308086 -70.30834961 107.29516602 C-71.9868201 107.30678456 -73.66525092 107.32738839 -75.34350586 107.35668945 C-77.79826339 107.39936223 -80.25194911 107.41551959 -82.70703125 107.42578125 C-83.45088577 107.44328934 -84.1947403 107.46079742 -84.96113586 107.47883606 C-90.1336846 107.45736553 -93.01159281 106.24542092 -97 103 C-99.46962828 100.05237915 -99.97949964 98.54325953 -100.125 94.6875 C-97.66802042 86.63406692 -89.67137883 80.52569652 -83.81738281 74.68798828 C-83.03114029 73.89999344 -82.24489777 73.1119986 -81.43482971 72.30012512 C-78.86008818 69.72101602 -76.28174651 67.14554192 -73.703125 64.5703125 C-71.90413038 62.77064372 -70.10528419 60.97082656 -68.30657959 59.17086792 C-64.54927066 55.41208922 -60.79021852 51.65506605 -57.02978516 47.89941406 C-52.68515159 43.56024097 -48.34415876 39.21745056 -44.00500035 34.87280285 C-39.81853935 30.68125863 -35.62927276 26.49252727 -31.43880463 22.30498886 C-29.65982367 20.52667557 -27.88158687 18.74761753 -26.10410309 16.96780777 C-23.62682301 14.4879958 -21.14637337 12.01139888 -18.66503906 9.53564453 C-17.92941238 8.79799362 -17.19378571 8.06034271 -16.43586731 7.30033875 C-15.76031296 6.62760422 -15.08475861 5.95486969 -14.38873291 5.26174927 C-13.51053579 4.38411769 -13.51053579 4.38411769 -12.61459732 3.48875618 C-8.70313404 -0.11784905 -5.165786 -0.98442337 0 0 Z " fill="#32385A" transform="translate(377,128)"/>
<path d="M0 0 C3.43960427 1.80422573 6.11300236 3.86233001 8.85270691 6.59873962 C9.94410728 7.68168053 9.94410728 7.68168053 11.05755615 8.78649902 C11.8406012 9.57359253 12.62364624 10.36068604 13.43041992 11.17163086 C14.26674454 12.00445084 15.10306915 12.83727081 15.96473694 13.69532776 C18.24927999 15.97259128 20.52928223 18.25427901 22.8070085 20.5383575 C25.19470034 22.93112511 27.587282 25.3189953 29.9790802 27.70765686 C33.99315725 31.71809958 38.00300843 35.73273131 42.01049805 39.74975586 C46.64141124 44.39155999 51.27949532 49.02610532 55.92135543 53.65696043 C59.91070677 57.63723259 63.89614335 61.62139307 67.87834054 65.60882288 C70.25500351 67.98860111 72.63299055 70.36701395 75.01451683 72.74192619 C77.66713068 75.38947161 80.31326634 78.04332535 82.95776367 80.69897461 C83.74688141 81.48404388 84.53599915 82.26911316 85.34902954 83.07797241 C86.06817032 83.80275284 86.7873111 84.52753326 87.52824402 85.27427673 C88.15409991 85.90088668 88.77995581 86.52749662 89.42477703 87.17309475 C92.16013698 90.34549863 93.0289047 92.20512083 92.875 96.4375 C91.78676574 100.86816806 90.13985373 103.61254255 86.27246094 106.12011719 C83.24777406 107.29125723 80.69550516 107.25935694 77.453125 107.265625 C75.49040649 107.27190918 75.49040649 107.27190918 73.48803711 107.27832031 C72.07535003 107.27017221 70.66267003 107.26070342 69.25 107.25 C68.17904587 107.24534729 68.17904587 107.24534729 67.0864563 107.24060059 C16.02833245 106.98065741 16.02833245 106.98065741 1.01171875 94.32421875 C-8.59432335 84.38906172 -10.41682776 71.55338851 -10.21875 58.3046875 C-9.86708879 48.54169328 -7.48587103 39.20456856 -3.57421875 30.26953125 C-2.79606766 28.02257772 -2.79606766 28.02257772 -3.640625 25.9296875 C-5.21840726 23.68996211 -6.9924977 22.10449836 -9.0625 20.3125 C-12.62129052 16.81226362 -14.31187524 14.23441245 -14.42578125 9.1875 C-13.76257463 5.78019996 -12.31397677 3.69072439 -9.8828125 1.25390625 C-6.4158045 -1.05503476 -4.08221237 -0.64797022 0 0 Z " fill="#32385A" transform="translate(142,128)"/>
<path d="M0 0 C4.40105676 0.66159677 8.69770175 1.59662413 13.02661133 2.61181641 C71.18102958 16.2393959 123.46330831 16.99480613 181.47558594 1.87963867 C182.89145996 1.51189331 182.89145996 1.51189331 184.3359375 1.13671875 C185.16657715 0.91717529 185.9972168 0.69763184 186.85302734 0.47143555 C189 0 189 0 192 0 C185.77282541 18.57773754 163.66323378 36.51481446 146.76171875 45.25 C130.72099508 53.18442939 115.23022546 57.40399557 97.25 57.3125 C95.54710815 57.30621582 95.54710815 57.30621582 93.80981445 57.29980469 C84.85604124 57.18002177 76.66787836 56.26033109 68 54 C66.92492187 53.74476563 65.84984375 53.48953125 64.7421875 53.2265625 C37.63015812 45.96560131 14.87624911 25.19480474 0 2 C0 1.34 0 0.68 0 0 Z " fill="#FDFDFD" transform="translate(160,284)"/>
<path d="M0 0 C6.21775729 2.53539618 12.21672479 8.46304554 16 14 C16.61888336 16.90276262 16.50553473 18.95109077 16.09765625 21.8671875 C15.75238814 24.36404857 15.75238814 24.36404857 18.375 27.0625 C21.43340817 29.44362043 21.43340817 29.44362043 25.06640625 30 C29.43891545 30 32.1150369 30.32425725 35.66015625 33.03125 C42 39.38114105 42 39.38114105 42 41 C33.87886909 41.4068099 26.10113137 40.79350263 18.0625 39.6875 C17.16313721 39.56979248 16.26377441 39.45208496 15.3371582 39.33081055 C10.38951382 38.60869194 6.31254882 37.69873338 2 35 C0.1875 32.4375 0.1875 32.4375 -1 30 C-1.33 29.34 -1.66 28.68 -2 28 C-2.24096906 24.60982856 -2.18520265 21.21028264 -2.1875 17.8125 C-2.19974609 16.87857422 -2.21199219 15.94464844 -2.22460938 14.98242188 C-2.23600833 9.58311751 -1.78580119 5.10329746 0 0 Z " fill="#D92C2D" transform="translate(156,172)"/>
<path d="M0 0 C1.9641471 5.75941141 2.33512266 10.93712738 2.3125 17 C2.32861328 17.86367187 2.34472656 18.72734375 2.36132812 19.6171875 C2.36555508 25.17985465 1.65317754 29.08551861 -1 34 C-5.02874972 37.43628653 -9.93313532 38.04054675 -15 39 C-15.81339844 39.18691406 -16.62679688 39.37382812 -17.46484375 39.56640625 C-25.64934458 41.32638162 -33.67712628 41.18796954 -42 41 C-41.06409496 39.8944811 -40.12620142 38.79064547 -39.1875 37.6875 C-38.40439453 36.76517578 -38.40439453 36.76517578 -37.60546875 35.82421875 C-37.07566406 35.22222656 -36.54585938 34.62023437 -36 34 C-35.53851563 33.43796875 -35.07703125 32.8759375 -34.6015625 32.296875 C-32.43948848 30.54612238 -30.94097936 30.63440345 -28.1875 30.5625 C-23.24909848 30.21594551 -20.76505715 29.18581759 -17 26 C-15.77991592 24.07691051 -15.77991592 24.07691051 -16.39453125 22.109375 C-16.95375521 18.95263414 -16.89636297 17.11950108 -16 14 C-12.86268473 9.68633468 -5.64395972 0 0 0 Z " fill="#DA2C2D" transform="translate(356,172)"/>
</svg>
